<mxfile host="app.diagrams.net" agent="Mozilla/5.0 (Windows NT 10.0; Win64; x64) AppleWebKit/537.36 (KHTML, like Gecko) Chrome/131.0.0.0 Safari/537.36" version="24.8.3">
  <diagram name="第 1 页" id="mw8YSgzGcZfhwnxsACSi">
    <mxGraphModel dx="2868" dy="1512" grid="1" gridSize="10" guides="1" tooltips="1" connect="1" arrows="1" fold="1" page="1" pageScale="1" pageWidth="1169" pageHeight="827" math="0" shadow="0">
      <root>
        <mxCell id="0" />
        <mxCell id="1" parent="0" />
        <mxCell id="8dIhjK9OeBvqseQbhA_u-1" value="" style="rounded=0;whiteSpace=wrap;html=1;" vertex="1" parent="1">
          <mxGeometry x="190" y="150" width="120" height="60" as="geometry" />
        </mxCell>
        <mxCell id="0_6M7o1VsgSKVRpIM2WW-1" value="未命名图层" parent="0" />
        <mxCell id="0_6M7o1VsgSKVRpIM2WW-2" value="未命名图层" parent="0" />
      </root>
    </mxGraphModel>
  </diagram>
</mxfile>
